<svg width="40" height="35" xmlns="http://www.w3.org/2000/svg" xmlns:svg="http://www.w3.org/2000/svg" xmlns:xlink="http://www.w3.org/1999/xlink">
 <!-- Created with SVG-edit - https://github.com/SVG-Edit/svgedit-->
 <defs>
  <symbol id="svg_131" viewBox="0 0 368.61 313.98" xmlns="http://www.w3.org/2000/svg" xmlns:svg="http://www.w3.org/2000/svg" xmlns:xlink="http://www.w3.org/1999/xlink">
   <defs>
    <linearGradient id="svg_128">
     <stop id="svg_130" offset="0" stop-color="#853c00" stop-opacity="0.74339"/>
     <stop id="svg_129" offset="1" stop-color="#5e0000" stop-opacity="0"/>
    </linearGradient>
    <linearGradient id="svg_118" x1="0.51304" x2="0.31251" xlink:href="#svg_128" y1="0.39844" y2="0.78908"/>
    <linearGradient id="svg_115" x1="0.72066" x2="0.28403" xlink:href="#svg_128" y1="0.63209" y2="0.63209"/>
   </defs>
   <path d="m185.31,0c-25.71,2.9541 -52.07,4.6056 -76.29,14.528c-17.647,4.923 -35.756,10.099 -50.529,21.436c-12.838,8.009 -27.014,16.281 -33.66,30.591c-1.916,10.515 -5.408,24.32 4.26,32.12c17.76,9.295 38.511,6.095 57.73,8.645c55.419,2.86 110.96,1.4 166.38,4.28c34.32,0.34 68.66,-1.99 102.95,0.06c0.73,-19.238 -10.33,-35.92 -16.48,-53.449c-6.11,-11.324 -18.96,-16.032 -28.16,-24.331c-11.49,-8.801 -25.29,-13.647 -39.36,-16.358c-28.62,-7.352 -57.67,-12.912 -86.84,-17.522l-0.001,0z" fill="#eab033" fill-rule="evenodd" id="svg_127"/>
   <path d="m351.16,232.58c-15.4,6.68 -30.57,15.42 -47.78,16c-26.44,4.36 -53.05,8.66 -79.93,8.33c-35.72,1.63 -71.62,0.55 -107.14,-3.63c-19.227,-2.89 -38.476,-6.04 -57.489,-10.01c-17.681,-5.03 -35.38,-10.02 -52.892,-15.62c0.8774,14.31 0.6171,30.66 11.305,41.68c6.193,15.32 24.166,17.79 37.334,24.28c20.131,9.58 42.99,8.97 64.312,14.18c27,4.61 54.51,5.09 81.83,5.11c20.82,-0.67 41.72,-1.8 62.41,-3.81c20.44,-5.35 42.93,-5.49 61.17,-17.28c9.48,-4.82 23.66,-7.72 25.51,-20.2c1.62,-10.96 5.01,-22.09 2.59,-33.31c-0.32,-1.93 -0.73,-3.84 -1.23,-5.72z" fill="#eab033" fill-rule="evenodd" id="svg_126"/>
   <path d="m9.3713,229.79l-3.9047,-4.7l-1.5619,-19.56l10.152,-3.91l-0.781,-7.05l26.552,4.7l57.009,3.13l11.713,-2.35l14.84,10.96l26.55,1.56l35.92,3.13l46.08,-3.13l24.99,-7.82l32.8,-0.79l48.42,-0.78l17.96,-3.91l6.25,7.82l1.56,14.09l-10.15,14.87l-40.61,14.08l-65.6,10.17l-55.45,0l-54.66,-3.13l-57.013,-7.04l-21.085,-4.69l-49.981,-15.65l0.0006,0z" fill="#c34b00" fill-rule="evenodd" id="svg_125"/>
   <path d="m14.057,194.59l-3.905,-12.58l2.343,-17.81l28.895,18.86l38.266,5.24l32.014,2.1l-0.78,11.52l-16.396,3.15l-31.238,-2.1l-31.237,-5.24l-17.962,-3.14z" fill="#eeeee0" fill-rule="evenodd" id="svg_124"/>
   <path d="m112.54,185.65l-1.65,16.46l10.7,9.26l37.84,5.15l39.49,2.05l31.26,-2.05l26.32,-10.29l0,-19.55l-28.79,1.02l-37.02,2.06l-31.26,-1.03l-29.62,-1.03l-17.27,-2.05z" fill="#eeeee0" fill-rule="evenodd" id="svg_123"/>
   <path d="m248.34,188.94l0.78,14.97l27.33,0.94l41.39,1.87l31.24,-4.68l8.59,-3.74l3.91,-18.71l-15.62,5.61l-28.9,2.81l-28.11,0l-24.21,0.93l-10.93,-1.87l-2.35,-0.93l-3.12,2.8z" fill="#eeeee0" fill-rule="evenodd" id="svg_122"/>
   <path d="m12.495,166.6l1.562,-26.08l47.638,14.9l57.785,4.66l53.11,-0.93l8.59,1.86l0.78,22.35l0,5.59l-41.39,0.93l-26.55,-3.73l-3.91,3.73l-38.263,-2.79l-31.238,-0.94l-28.114,-19.55z" fill="#eb3d33" fill-rule="evenodd" id="svg_121"/>
   <path d="m177.92,165.36l44.87,16.96l17.63,5.08l9.62,1.7l39.26,0l45.67,0l25.64,-6.78l7.21,-11.02l-7.21,-23.73l-22.43,12.71l-25.64,2.54l-31.25,-0.85l-19.23,-4.23l-38.46,-2.55l-22.44,-8.47l-16.03,-2.55l-11.21,15.26l8.01,7.63l-4.01,-1.7z" fill="#eb3d33" fill-rule="evenodd" id="svg_120"/>
   <path d="m181.18,166.98l0,19.57l0,3.13l43.73,0l24.21,-2.35l-34.36,-10.96l-22.65,-7.82l-10.93,-1.57z" fill="#ba3d33" fill-rule="evenodd" id="svg_119"/>
   <path d="m185.58,1.3797c-24.47,3.0303 -49.64,4.1 -72.8,13.41c-19.545,5.603 -39.753,11.169 -56.025,23.987c-13.397,8.742 -30.88,17.532 -33.154,35.256c-1.902,10.718 -0.498,25.779 11.569,29.747c60.211,9.02 121.38,5.17 182.01,8.17c42.54,2.18 85.14,-0.36 127.68,0.66c7.79,2.9 16.06,-2.5 10.64,-10.77c-4.32,-16.681 -10.35,-33.057 -19.34,-47.807c-11.96,-10.397 -25.04,-19.679 -38.82,-27.408c-36.07,-12.812 -74.2,-18.659 -111.76,-25.245z" fill="url(#svg_118)" fill-rule="evenodd" id="svg_117"/>
   <path d="m351.42,235.26l-39.82,14.87l-59.36,7.83l-53.1,1.56l76.53,1.57l53.11,-10.18l17.96,-3.13l2.34,18.78l-1.56,10.18l6.25,-25.83l-2.35,-15.65z" fill="#000000" fill-opacity="0.525" fill-rule="evenodd" id="svg_116"/>
   <path d="m351.5,233.66c-17.41,8.6 -35.48,16.11 -55.1,17.17c-47.28,8.66 -95.64,8.95 -143.51,6.66c-35.17,-1.85 -70.29,-7.37 -104.35,-16.16c-13.185,-1.94 -33.582,-13.27 -42.109,-9.93c-0.6605,17.93 5.142,35.61 17.758,48.41c16.579,10.71 35.88,17.9 55.093,22.35c33.358,5.41 66.638,12.06 100.6,11.69c28.47,0.6 57.15,-0.94 85.36,-4.12c21.49,-4.73 44.31,-6.47 63.28,-18.63c22.95,-4.12 25.79,-29.17 24.66,-48.33c-0.32,-3.07 -0.89,-6.12 -1.68,-9.11l-0.002,0z" fill="url(#svg_115)" fill-rule="evenodd" id="svg_114"/>
   <path d="m5.7947,227.87l4.2373,30.66l23.308,27.43l-14.832,-30.66l4.238,-16.13l80.514,12.9l-97.465,-24.2l-0.0003,0z" fill="#000000" fill-opacity="0.35625" fill-rule="evenodd" id="svg_113"/>
   <path d="m48.403,245.36l42.311,9.86l60.026,8.87l67.89,1.97l46.25,-5.91l-32.47,-0.99l-48.22,0l-72.81,-5.91l-50.185,-7.89l-12.792,0z" fill="#000000" fill-opacity="0.45625" fill-rule="evenodd" id="svg_112"/>
   <path d="m5.1074,205.92l2.9519,19.72l48.216,17.75l13.776,3.94l-6.888,-23.66l18.696,0.98l30.501,2.96l7.87,6.9l3.94,15.78l3.94,3.94l9.84,0l0,-16.76l8.85,-10.84l23.62,3.94l1.97,6.9l19.68,-2.96l17.71,-1.97l1.97,11.83l-1.97,9.86l-0.99,3.95l15.75,0l-0.99,-17.75l8.86,-7.89l1.97,2.96l5.9,0l5.9,-3.94l9.84,9.85l3.94,9.86l6.89,4.93l42.31,-4.93l35.42,-12.81l5.91,-3.95l10.82,-16.76l-0.98,-12.81l-3.94,-3.95l-18.69,2.96l-18.7,0.99l-61.01,-0.99l-25.58,8.87l-47.23,3.95l-63.96,-4.93l-12.79,-12.82l-9.844,3.94l-62.975,-1.97l-21.648,-5.91l0.984,6.9l-9.8396,3.94l-0.0003,0z" fill="#000000" fill-opacity="0.53125" fill-rule="evenodd" id="svg_111"/>
   <path d="m111.38,191.13l-1.97,7.89l-12.792,2.96l-33.455,0l31.487,-1.97l7.87,-7.89l-2.95,-0.99l-10.824,-2.96l22.634,2.96z" fill="#000000" fill-opacity="0.42188" fill-rule="evenodd" id="svg_110"/>
   <path d="m257.99,191.13l1.97,10.85l-14.76,5.91l-13.78,5.92l-17.71,0.98l27.55,-6.9l9.84,-8.87l-1.96,-8.87l-6.89,0l15.74,0.98z" fill="#000000" fill-opacity="0.42188" fill-rule="evenodd" id="svg_109"/>
   <path d="m362.3,183.24l0.98,8.88l-3.94,7.89l-16.72,3.94l-30.51,0.99l37.39,-4.93l6.89,-2.96l-0.98,-6.9l-6.89,-2.96l-1.97,-0.99l5.91,-1.97l9.84,-0.99z" fill="#000000" fill-opacity="0.42188" fill-rule="evenodd" id="svg_108"/>
   <path d="m13.963,171.41l-1.968,8.88l1.968,13.8l15.744,3.94s-3.936,-1.97 -7.872,-6.9s-4.92,-7.89 -4.92,-7.89l-2.952,-11.83z" fill="#000000" fill-opacity="0.42188" fill-rule="evenodd" id="svg_107"/>
   <path d="m12.979,150.71l0.984,18.73l26.568,18.73l15.744,-1.97l-12.792,-9.86l-5.904,-14.79l-4.92,-6.9l-9.84,0.99l-9.84,-4.93z" fill="#000000" fill-opacity="0.25" fill-rule="evenodd" id="svg_106"/>
   <path d="m85.795,166.48l23.615,3.95l22.63,0.98l26.57,1.98l11.81,2.95l9.84,10.85l0.98,-20.71l-12.79,-2.95l-38.38,0.98l-39.356,-0.98l-4.919,2.95z" fill="#000000" fill-opacity="0.25" fill-rule="evenodd" id="svg_105"/>
   <path d="m23.428,93.634l-6.247,-5.478l-7.8097,0.783l6.2477,10.955l-11.714,1.566l2.3426,7.04l5.4664,0.78l-6.2474,6.26l-5.4666,4.7l4.6857,3.13l7.0283,0.78l-5.4664,10.17l-5.4667,5.48c0.00004,0 0.781,5.48 3.9048,5.48l12.495,0l-1.562,7.82l6.247,3.92l9.372,-3.92l7.809,9.39l2.343,0.79l11.714,-6.26l10.152,7.04l12.496,0.78l20.304,1.57l7.024,-8.61l4.69,12.52l5.47,-10.17l14.05,4.69l4.69,3.13s16.4,-4.69 19.52,-4.69c3.13,0 15.62,1.56 15.62,1.56l2.34,9.39l12.5,-10.17l9.37,-10.96l19.52,9.39l3.91,-9.39l7.03,10.18l11.71,2.34l7.81,-3.13l8.59,14.09s15.62,14.86 17.96,11.73c2.35,-3.13 16.4,-17.21 16.4,-17.21l16.4,3.13l7.03,-4.69l16.4,3.13l7.81,-3.92l7.81,-3.91l13.28,5.48l3.9,-10.96l4.69,-4.69s7.03,1.56 7.03,-2.35s-0.79,-10.95 -0.79,-10.95s-5.46,-0.79 -5.46,-3.92s3.9,-10.95 3.9,-10.95l-3.12,-7.04l2.34,-7.83l-7.81,-1.56s-65.6,-1.57 -68.72,-0.79c-3.12,0.79 -99.18,-0.78 -99.18,-0.78l-86.69,0l-35.138,-2.35l-30.457,-3.91l-14.057,-8.606l0.0003,0z" fill="#4fbe33" fill-rule="evenodd" id="svg_104"/>
   <path d="m339.66,166.48l8.86,4.93l-4.92,5.92l-12.79,7.89l-3.94,2.95l19.68,-3.94l14.76,-3.94l4.92,-9.86l-3.93,-15.78l-5.91,5.92l-2.95,8.87l-13.78,-2.96z" fill="#000000" fill-opacity="0.3625" fill-rule="evenodd" id="svg_103"/>
   <path d="m181.24,167.47l-0.98,19.72l11.81,0l23.61,1.97l12.79,0l-15.74,-7.89l-10.82,-7.88l-7.88,-5.92l-7.87,-4.93l-3.93,0l-0.99,4.93z" fill="#000000" fill-opacity="0.21562" fill-rule="evenodd" id="svg_102"/>
   <path d="m24.787,92.538l0,-28.592l19.68,-16.761l19.68,-13.803l-19.68,20.705l-8.856,17.746l6.888,19.719l12.792,7.888l23.616,4.93l21.643,3.94l-35.419,0l-23.616,-2.95l-10.824,-5.92l-5.904,-6.902z" fill="#000000" fill-opacity="0.2875" fill-rule="evenodd" id="svg_101"/>
   <path d="m330.81,48.171l5.9,12.817l7.87,21.691l0,13.803l-3.93,10.848l-10.83,2.95l16.73,0l12.79,0l-5.9,-18.728l-7.87,-19.719l-8.86,-19.718l-5.9,-3.944z" fill="#000000" fill-opacity="0.2875" fill-rule="evenodd" id="svg_100"/>
   <path d="m77.923,110.28l22.627,4.93l30.51,2.96l22.63,-1.97l3.94,9.86l7.87,-8.87l6.89,-0.99l11.8,5.92l13.78,-7.89l7.87,-2.96l9.84,9.86l9.84,-6.9l8.86,-0.99l19.68,5.92l15.74,-4.93s3.94,0.98 6.89,4.93c2.95,3.94 8.85,13.8 8.85,13.8l1.97,-9.86l10.83,-3.94l1.96,11.83l4.92,16.76l-0.98,-14.79l3.94,-7.89l0,-9.86l8.85,0.99l7.87,-1.97l9.84,-0.99l6.89,3.95l5.91,-3.95l7.87,-1.97l2.95,0l-58.06,-0.99l-84.62,-1.97l-83.64,-0.98l-47.229,-0.99l-24.6,-0.98l-15.744,-0.99l-11.808,-4.93l-8.856,-7.888l-0.984,6.902l-3.936,2.956l11.808,1.97l2.952,12.82l13.776,-2.96l4.92,2.96l3.936,-1.97l6.888,3.94l1.968,7.89l4.92,-5.92l3.936,-2.95l1.968,2.95l1.968,-9.86z" fill="#000000" fill-opacity="0.46875" fill-rule="evenodd" id="svg_99"/>
   <path d="m36.595,126.06l-5.904,5.92l-1.968,10.84l-5.904,4.93l17.712,-0.99l2.952,-8.87l5.904,8.87l5.904,-9.85l-2.952,-8.88l-15.744,-1.97z" fill="#000000" fill-opacity="0.2875" fill-rule="evenodd" id="svg_98"/>
   <path d="m91.698,136.91l-1.968,9.85l5.904,8.88l3.936,-9.86l6.89,4.93l4.92,-4.93l9.84,7.89l-8.86,-19.72l-9.84,-10.85l-9.838,-4.93l-7.871,-0.98l7.871,9.86l-0.984,9.86z" fill="#000000" fill-opacity="0.2875" fill-rule="evenodd" id="svg_97"/>
   <path d="m170.42,144.79l-0.99,10.85l2.96,10.84l6.88,-8.87l6.89,-10.85l5.91,3.95l7.87,4.93l7.87,2.96l3.94,-2.96l0.98,-3.95l-13.78,-10.84l-10.82,-11.83l-13.78,-1.97l2.96,7.88l-2.96,8.88l-9.84,-2.96l5.91,3.94z" fill="#000000" fill-opacity="0.2875" fill-rule="evenodd" id="svg_96"/>
   <path d="m247.17,138.88l0,13.8l12.79,3.94l-3.94,6.91l2.96,9.86l1.96,6.9l4.92,-10.85l4.92,-10.84l8.86,1.97l1.97,-15.78l6.89,-6.9l-11.81,2.96l-4.92,6.9l-11.81,-11.83l-0.98,-7.89l-9.84,-0.98l5.9,6.9l-0.98,5.91l-6.89,-0.98z" fill="#000000" fill-opacity="0.40938" fill-rule="evenodd" id="svg_95"/>
   <path d="m322.94,135.92l9.84,-4.93l6.88,7.89l6.89,-9.86l10.83,-7.89l-2.96,9.86l1.97,2.96l-2.95,8.87l-4.92,1.97l3.94,9.86l-1.97,10.85l-8.86,-13.81l-8.85,-0.98l-1.97,7.89l-7.87,1.97l-5.91,3.94l-8.85,-1.97l-12.8,0l-10.82,6.9l2.95,-10.84l10.83,-2.96l11.8,0l5.91,-8.88l-3.94,-5.91l-0.98,-9.86l5.9,3.94l2.95,-9.86l2.96,10.85z" fill="#000000" fill-opacity="0.45938" fill-rule="evenodd" id="svg_94"/>
   <path d="m86.778,125.07l-6.887,-1.97l-8.856,2.96l-3.936,7.89l-5.904,0l-3.936,4.93l0,8.87l4.92,2.96l-1.968,7.89l8.856,0.98l6.888,-5.91l3.936,5.91l5.904,-3.94l5.903,6.9l-1.968,-13.8l-2.952,-4.93l2.952,-7.89l0,-5.92l-2.952,-4.93z" fill="#000000" fill-opacity="0.45938" fill-rule="evenodd" id="svg_93"/>
   <path d="m24.787,114.23l-8.856,-1.97l-6.8877,3.94l-1.9679,1.97l6.8876,2.96l4.92,0.99l-2.952,6.9l-3.936,4.93l-0.984,5.91l10.824,-1.97l4.92,-7.89l1.968,-7.88l-3.936,-7.89z" fill="#000000" fill-opacity="0.4875" fill-rule="evenodd" id="svg_92"/>
   <path d="m153.69,129.02l-7.87,-7.89l-12.79,1.97l-21.65,-1.97l-5.91,0l13.78,10.85l0.98,9.86l4.92,9.85l4.92,6.91l-0.98,3.94l3.94,-7.89l5.9,5.92l6.89,-6.9l0.98,-6.91l5.91,8.88l4.92,-2.96l9.84,12.82l-0.99,-13.81l-4.92,-10.84l-1.97,-3.94l5.91,-2.96l2.95,-6.9l-6.89,1.97l-7.87,0z" fill="#000000" fill-opacity="0.2875" fill-rule="evenodd" id="svg_91"/>
   <path d="m196.99,125.07l2.95,-6.9l3.93,4.93l3.94,-1.97l4.92,5.92l7.87,-1.98l7.87,-3.94l11.81,0l6.89,8.87l-8.86,-0.98l-2.95,7.89l3.94,7.88l-1.97,7.89l0,5.92l-8.86,0.98l-5.9,-3.94l-3.94,-11.83l-7.87,0.98l-6.89,-7.88l-5.9,-4.93l-0.98,-6.91z" fill="#000000" fill-opacity="0.44688" fill-rule="evenodd" id="svg_90"/>
   <path d="m299.32,144.79l-0.98,-7.88l-2.96,-8.88l-4.92,1.97l0.99,8.88l-3.94,6.9l-2.95,6.9l0.98,3.94l6.89,-2.95l3.94,-2.96l2.95,-5.92z" fill="#000000" fill-opacity="0.2875" fill-rule="evenodd" id="svg_89"/>
   <path d="m277.67,130l-2.95,-5.91l-5.9,-3.95l-4.92,0.99l2.95,8.87l0.98,5.92l0.99,2.96l6.88,-3.95l1.97,-4.93z" fill="#000000" fill-opacity="0.2875" fill-rule="evenodd" id="svg_88"/>
   <path d="m325.89,120.14l0.98,5.92l11.81,1.97l5.9,-2.96l12.8,-7.88l-15.75,0.98l-5.9,0.99l-3.94,-0.99l-5.9,1.97z" fill="#000000" fill-opacity="0.45625" fill-rule="evenodd" id="svg_87"/>
   <path d="m280.62,167.47l-6.88,-3.94l-3.94,4.93l-2.95,6.9l-2.95,7.88l4.92,-1.97l8.85,-6.9l2.95,-6.9z" fill="#000000" fill-opacity="0.2875" fill-rule="evenodd" id="svg_86"/>
   <path d="m247.17,158.6l-0.99,7.88l6.89,6.91l-0.98,-7.89l0.98,-6.9l-5.9,0z" fill="#000000" fill-opacity="0.4375" fill-rule="evenodd" id="svg_85"/>
   <path d="m164.37,15.395l-7.34,2.855l1.47,3.568l5.87,-0.714l0,-5.709z" fill="#ffffff" fill-opacity="0.44375" fill-rule="evenodd" id="svg_84"/>
   <path d="m173.19,22.174l-7.35,2.855l1.47,3.568l5.88,-0.714l0,-5.709z" fill="#ffffff" fill-opacity="0.44375" fill-rule="evenodd" id="svg_83"/>
   <path d="m176.12,15.039l-7.34,2.854l1.47,3.568l5.87,-0.714l0,-5.708z" fill="#ffffff" fill-opacity="0.44375" fill-rule="evenodd" id="svg_82"/>
   <path d="m185.67,20.747l-7.34,2.854l1.46,3.568l5.88,-0.713l0,-5.709z" fill="#ffffff" fill-opacity="0.44375" fill-rule="evenodd" id="svg_81"/>
   <path d="m149.32,28.24l-7.35,2.854l1.47,3.568l5.88,-0.714l0,-5.708z" fill="#ffffff" fill-opacity="0.44375" fill-rule="evenodd" id="svg_80"/>
   <path d="m197.05,61.421l-7.34,2.854l1.47,3.568l5.87,-0.713l0,-5.709z" fill="#ffffff" fill-opacity="0.44375" fill-rule="evenodd" id="svg_79"/>
   <path d="m184.57,42.868l-7.35,2.854l1.47,3.568l5.88,-0.713l0,-5.709z" fill="#ffffff" fill-opacity="0.44375" fill-rule="evenodd" id="svg_78"/>
   <path d="m170.61,33.592l-7.34,2.854l1.47,3.568l5.87,-0.714l0,-5.708z" fill="#ffffff" fill-opacity="0.44375" fill-rule="evenodd" id="svg_77"/>
   <path d="m186.04,33.235l-7.35,2.854l1.47,3.568l5.88,-0.714l0,-5.708z" fill="#ffffff" fill-opacity="0.44375" fill-rule="evenodd" id="svg_76"/>
   <path d="m202.93,37.159l-7.35,2.855l1.47,3.568l5.88,-0.714l0,-5.709z" fill="#ffffff" fill-opacity="0.44375" fill-rule="evenodd" id="svg_75"/>
   <path d="m202.93,23.601l-7.35,2.855l1.47,3.568l5.88,-0.714l0,-5.709z" fill="#ffffff" fill-opacity="0.44375" fill-rule="evenodd" id="svg_74"/>
   <path d="m207.33,29.31l-7.34,2.854l1.47,3.568l5.87,-0.713l0,-5.709z" fill="#ffffff" fill-opacity="0.44375" fill-rule="evenodd" id="svg_73"/>
   <path d="m200.72,16.822l-7.34,2.855l1.47,3.568l5.87,-0.714l0,-5.709z" fill="#ffffff" fill-opacity="0.44375" fill-rule="evenodd" id="svg_72"/>
   <path d="m196.32,24.315l-7.35,2.854l1.47,3.568l5.88,-0.713l0,-5.709z" fill="#ffffff" fill-opacity="0.44375" fill-rule="evenodd" id="svg_71"/>
   <path d="m190.44,12.184l-7.34,2.855l1.47,3.567l5.87,-0.713l0,-5.709z" fill="#ffffff" fill-opacity="0.44375" fill-rule="evenodd" id="svg_70"/>
   <path d="m208.07,22.888l-7.35,2.854l1.47,3.568l5.88,-0.713l0,-5.709z" fill="#ffffff" fill-opacity="0.44375" fill-rule="evenodd" id="svg_69"/>
   <path d="m219.82,34.662l-7.35,2.854l1.47,3.568l5.88,-0.713l0,-5.709z" fill="#ffffff" fill-opacity="0.44375" fill-rule="evenodd" id="svg_68"/>
   <path d="m215.41,29.31l-7.34,2.854l1.47,3.568l5.87,-0.713l0,-5.709z" fill="#ffffff" fill-opacity="0.44375" fill-rule="evenodd" id="svg_67"/>
   <path d="m216.88,25.029l-7.34,2.854l1.47,3.568l5.87,-0.714l0,-5.708z" fill="#ffffff" fill-opacity="0.44375" fill-rule="evenodd" id="svg_66"/>
   <path d="m199.26,29.31l-7.35,2.854l1.47,3.568l5.88,-0.713l0,-5.709z" fill="#ffffff" fill-opacity="0.44375" fill-rule="evenodd" id="svg_65"/>
   <path d="m173.19,31.808l-7.35,2.854l1.47,3.568l5.88,-0.714l0,-5.708z" fill="#ffffff" fill-opacity="0.44375" fill-rule="evenodd" id="svg_64"/>
   <path d="m182,38.587l-7.35,2.854l1.47,3.568l5.88,-0.714l0,-5.708z" fill="#ffffff" fill-opacity="0.44375" fill-rule="evenodd" id="svg_63"/>
   <path d="m184.94,31.451l-7.35,2.854l1.47,3.568l5.88,-0.714l0,-5.708z" fill="#ffffff" fill-opacity="0.44375" fill-rule="evenodd" id="svg_62"/>
   <path d="m179.79,37.516l-5.87,6.343l1.17,7.929l4.7,-1.586l0,-12.686z" fill="#ffffff" fill-opacity="0.44375" fill-rule="evenodd" id="svg_61"/>
   <path d="m193.01,33.592l-7.34,2.854l1.47,3.568l5.87,-0.714l0,-5.708z" fill="#ffffff" fill-opacity="0.44375" fill-rule="evenodd" id="svg_60"/>
   <path d="m195.95,26.456l-7.34,2.854l1.47,3.568l5.87,-0.714l0,-5.708z" fill="#ffffff" fill-opacity="0.44375" fill-rule="evenodd" id="svg_59"/>
   <path d="m211.37,44.652l-7.34,2.854l1.47,3.568l5.87,-0.713l0,-5.709z" fill="#ffffff" fill-opacity="0.44375" fill-rule="evenodd" id="svg_58"/>
   <path d="m220.19,51.431l-7.35,2.854l1.47,3.568l5.88,-0.713l0,-5.709z" fill="#ffffff" fill-opacity="0.44375" fill-rule="evenodd" id="svg_57"/>
   <path d="m223.12,44.295l-7.34,2.855l1.47,3.567l5.87,-0.713l0,-5.709z" fill="#ffffff" fill-opacity="0.44375" fill-rule="evenodd" id="svg_56"/>
   <path d="m226.79,33.235l-7.34,2.854l1.47,3.568l5.87,-0.714l0,-5.708z" fill="#ffffff" fill-opacity="0.44375" fill-rule="evenodd" id="svg_55"/>
   <path d="m235.61,40.014l-7.35,2.854l1.47,3.568l5.88,-0.714l0,-5.708z" fill="#ffffff" fill-opacity="0.44375" fill-rule="evenodd" id="svg_54"/>
   <path d="m238.54,32.878l-7.34,2.854l1.47,3.568l5.87,-0.713l0,-5.709z" fill="#ffffff" fill-opacity="0.44375" fill-rule="evenodd" id="svg_53"/>
   <path d="m217.98,18.963l-7.34,2.855l1.47,3.567l5.87,-0.713l0,-5.709z" fill="#ffffff" fill-opacity="0.44375" fill-rule="evenodd" id="svg_52"/>
   <path d="m226.79,25.742l-7.34,2.855l1.47,3.567l5.87,-0.713l0,-5.709z" fill="#ffffff" fill-opacity="0.44375" fill-rule="evenodd" id="svg_51"/>
   <path d="m229.73,18.606l-7.34,2.855l1.47,3.568l5.87,-0.714l0,-5.709z" fill="#ffffff" fill-opacity="0.44375" fill-rule="evenodd" id="svg_50"/>
   <path d="m237.81,26.099l-7.34,2.854l1.47,3.568l5.87,-0.713l0,-5.709z" fill="#ffffff" fill-opacity="0.44375" fill-rule="evenodd" id="svg_49"/>
   <path d="m246.62,32.878l-7.34,2.854l1.47,3.568l5.87,-0.713l0,-5.709z" fill="#ffffff" fill-opacity="0.44375" fill-rule="evenodd" id="svg_48"/>
   <path d="m249.56,25.742l-7.34,2.855l1.46,3.567l5.88,-0.713l0,-5.709z" fill="#ffffff" fill-opacity="0.44375" fill-rule="evenodd" id="svg_47"/>
   <path d="m130.59,22.531l-7.34,2.854l1.47,3.568l5.87,-0.713l0,-5.709z" fill="#ffffff" fill-opacity="0.44375" fill-rule="evenodd" id="svg_46"/>
   <path d="m132.79,36.446l-7.34,2.854l1.47,3.568l5.87,-0.713l0,-5.709z" fill="#ffffff" fill-opacity="0.44375" fill-rule="evenodd" id="svg_45"/>
   <path d="m142.34,22.174l-7.34,2.855l1.47,3.568l5.87,-0.714l0,-5.709z" fill="#ffffff" fill-opacity="0.44375" fill-rule="evenodd" id="svg_44"/>
   <path d="m135.73,39.657l-7.34,2.854l1.47,3.568l5.87,-0.713l0,-5.709z" fill="#ffffff" fill-opacity="0.44375" fill-rule="evenodd" id="svg_43"/>
   <path d="m144.54,46.436l-7.34,2.854l1.47,3.568l5.87,-0.713l0,-5.709z" fill="#ffffff" fill-opacity="0.44375" fill-rule="evenodd" id="svg_42"/>
   <path d="m137.2,52.145l-7.34,2.854l1.47,3.568l5.87,-0.714l0,-5.708z" fill="#ffffff" fill-opacity="0.44375" fill-rule="evenodd" id="svg_41"/>
   <path d="m150.42,63.205l-7.34,2.854l1.46,3.568l5.88,-0.713l0,-5.709z" fill="#ffffff" fill-opacity="0.44375" fill-rule="evenodd" id="svg_40"/>
   <path d="m165.11,50.717l-7.35,2.855l1.47,3.568l5.88,-0.714l0,-5.709z" fill="#ffffff" fill-opacity="0.44375" fill-rule="evenodd" id="svg_39"/>
   <path d="m170.25,52.145l-7.35,2.854l1.47,3.568l5.88,-0.714l0,-5.708z" fill="#ffffff" fill-opacity="0.44375" fill-rule="evenodd" id="svg_38"/>
   <path d="m178.33,48.22l-7.35,2.854l1.47,3.568l5.88,-0.713l0,-5.709z" fill="#ffffff" fill-opacity="0.44375" fill-rule="evenodd" id="svg_37"/>
   <path d="m187.14,54.999l-7.35,2.854l1.47,3.568l5.88,-0.713l0,-5.709z" fill="#ffffff" fill-opacity="0.44375" fill-rule="evenodd" id="svg_36"/>
   <path d="m190.08,47.863l-7.35,2.854l1.47,3.568l5.88,-0.713l0,-5.709z" fill="#ffffff" fill-opacity="0.44375" fill-rule="evenodd" id="svg_35"/>
   <path d="m190.81,70.341l-7.34,2.854l1.47,3.568l5.87,-0.713l0,-5.709z" fill="#ffffff" fill-opacity="0.44375" fill-rule="evenodd" id="svg_34"/>
   <path d="m208.44,52.145l-7.35,2.854l1.47,3.568l5.88,-0.714l0,-5.708z" fill="#ffffff" fill-opacity="0.44375" fill-rule="evenodd" id="svg_33"/>
   <path d="m214.31,62.135l-7.34,2.854l1.47,3.568l5.87,-0.714l0,-5.708z" fill="#ffffff" fill-opacity="0.44375" fill-rule="evenodd" id="svg_32"/>
   <path d="m234.14,48.22l-7.35,2.854l1.47,3.568l5.88,-0.713l0,-5.709z" fill="#ffffff" fill-opacity="0.44375" fill-rule="evenodd" id="svg_31"/>
   <path d="m242.95,54.999l-7.34,2.854l1.47,3.568l5.87,-0.713l0,-5.709z" fill="#ffffff" fill-opacity="0.44375" fill-rule="evenodd" id="svg_30"/>
   <path d="m245.89,47.863l-7.35,2.854l1.47,3.568l5.88,-0.713l0,-5.709z" fill="#ffffff" fill-opacity="0.44375" fill-rule="evenodd" id="svg_29"/>
   <path d="m251.03,43.938l-7.35,2.855l1.47,3.568l5.88,-0.714l0,-5.709z" fill="#ffffff" fill-opacity="0.44375" fill-rule="evenodd" id="svg_28"/>
   <path d="m285.54,68.557l-7.34,2.854l1.47,3.568l5.87,-0.713l0,-5.709z" fill="#ffffff" fill-opacity="0.44375" fill-rule="evenodd" id="svg_27"/>
   <path d="m256.9,40.014l-7.34,2.854l1.47,3.568l5.87,-0.714l0,-5.708z" fill="#ffffff" fill-opacity="0.44375" fill-rule="evenodd" id="svg_26"/>
   <path d="m257.64,31.094l-7.35,2.854l1.47,3.568l5.88,-0.713l0,-5.709z" fill="#ffffff" fill-opacity="0.44375" fill-rule="evenodd" id="svg_25"/>
   <path d="m278.2,47.15l-7.34,2.854l1.47,3.568l5.87,-0.714l0,-5.708z" fill="#ffffff" fill-opacity="0.44375" fill-rule="evenodd" id="svg_24"/>
   <path d="m269.39,30.737l-7.35,2.855l1.47,3.567l5.88,-0.713l0,-5.709z" fill="#ffffff" fill-opacity="0.44375" fill-rule="evenodd" id="svg_23"/>
   <path d="m118.11,34.662l-7.35,2.854l1.47,3.568l5.88,-0.713l0,-5.709z" fill="#ffffff" fill-opacity="0.44375" fill-rule="evenodd" id="svg_22"/>
   <path d="m126.92,41.441l-7.34,2.854l1.46,3.568l5.88,-0.713l0,-5.709z" fill="#ffffff" fill-opacity="0.44375" fill-rule="evenodd" id="svg_21"/>
   <path d="m135.73,41.441l-7.34,2.854l1.47,3.568l5.87,-0.713l0,-5.709z" fill="#ffffff" fill-opacity="0.44375" fill-rule="evenodd" id="svg_20"/>
   <path d="m104.89,28.24l-7.346,2.854l1.469,3.568l5.877,-0.714l0,-5.708z" fill="#ffffff" fill-opacity="0.44375" fill-rule="evenodd" id="svg_19"/>
   <path d="m113.7,35.019l-7.34,2.854l1.47,3.568l5.87,-0.714l0,-5.708z" fill="#ffffff" fill-opacity="0.44375" fill-rule="evenodd" id="svg_18"/>
   <path d="m118.11,36.446l-7.35,2.854l1.47,3.568l5.88,-0.713l0,-5.709z" fill="#ffffff" fill-opacity="0.44375" fill-rule="evenodd" id="svg_17"/>
   <path d="m146.75,18.25l-7.35,2.854l1.47,3.568l5.88,-0.714l0,-5.708z" fill="#ffffff" fill-opacity="0.44375" fill-rule="evenodd" id="svg_16"/>
   <path d="m156.29,55.713l-7.34,2.854l1.47,3.568l5.87,-0.714l0,-5.708z" fill="#ffffff" fill-opacity="0.44375" fill-rule="evenodd" id="svg_15"/>
   <path d="m158.5,17.893l-7.35,2.854l1.47,3.568l5.88,-0.714l0,-5.708z" fill="#ffffff" fill-opacity="0.44375" fill-rule="evenodd" id="svg_14"/>
   <path d="m93.138,50.361l-7.343,2.854l1.468,3.568l5.875,-0.714l0,-5.708z" fill="#ffffff" fill-opacity="0.44375" fill-rule="evenodd" id="svg_13"/>
   <path d="m112.97,51.431l-7.35,2.854l1.47,3.568l5.88,-0.713l0,-5.709z" fill="#ffffff" fill-opacity="0.44375" fill-rule="evenodd" id="svg_12"/>
   <path d="m106.36,53.572l-7.347,2.854l1.467,3.568l5.88,-0.714l0,-5.708z" fill="#ffffff" fill-opacity="0.44375" fill-rule="evenodd" id="svg_11"/>
   <path d="m128.39,55.356l-7.35,2.854l1.47,3.568l5.88,-0.714l0,-5.708z" fill="#ffffff" fill-opacity="0.44375" fill-rule="evenodd" id="svg_10"/>
   <path d="m137.2,62.135l-7.34,2.854l1.47,3.568l5.87,-0.714l0,-5.708z" fill="#ffffff" fill-opacity="0.44375" fill-rule="evenodd" id="svg_9"/>
   <path d="m140.14,54.999l-7.35,2.854l1.47,3.568l5.88,-0.713l0,-5.709z" fill="#ffffff" fill-opacity="0.44375" fill-rule="evenodd" id="svg_8"/>
   <path d="m251.03,58.924l-7.35,2.854l1.47,3.568l5.88,-0.714l0,-5.708z" fill="#ffffff" fill-opacity="0.44375" fill-rule="evenodd" id="svg_7"/>
   <path d="m259.84,65.703l-7.34,2.854l1.47,3.568l5.87,-0.714l0,-5.708z" fill="#ffffff" fill-opacity="0.44375" fill-rule="evenodd" id="svg_6"/>
   <path d="m262.78,58.567l-7.34,2.854l1.46,3.568l5.88,-0.714l0,-5.708z" fill="#ffffff" fill-opacity="0.44375" fill-rule="evenodd" id="svg_5"/>
   <path d="m262.78,66.773l-7.34,2.854l1.46,3.568l5.88,-0.713l0,-5.709z" fill="#ffffff" fill-opacity="0.44375" fill-rule="evenodd" id="svg_4"/>
   <path d="m277.47,57.853l-7.35,2.855l1.47,3.567l5.88,-0.713l0,-5.709z" fill="#ffffff" fill-opacity="0.44375" fill-rule="evenodd" id="svg_3"/>
   <path d="m231.94,62.848l-7.35,2.855l1.47,3.568l5.88,-0.714l0,-5.709z" fill="#ffffff" fill-opacity="0.44375" fill-rule="evenodd" id="svg_2"/>
   <metadata>image/svg+xmlOpenclipartburger2008-02-05T00:05:45https://openclipart.org/detail/12680/burger-by-anonymous-12680Anonymousburgerfastfoodfoodhamburgersandwich</metadata>
  </symbol>
 </defs>
 <g class="layer">
  <title>Layer 1</title>
  <use id="svg_132" transform="matrix(0.940059 0 0 0.940059 -411.619 -246.729)" x="438.88936" xlink:href="#svg_131" y="263.7507"/>
  <g id="svg_133"/>
 </g>
</svg>